PathFileType	4	(X/Y/Z)	Run_200 02
DataRate	CameraRate	NumFrames	NumMarkers	Units	OrigDataRate	OrigDataStartFrame	OrigNumFrames
100	100	6	45	mm	100	4	137
Frame#	Time	RASI			LPSI			RTH1			RTH2			RTH3			LTH1			LTH2			LTH3			RTB1			RTB2			RTB3			RLMAL			RMMAL			LTB1			LTB2			LTB3			RCAL			RTOE			RMT5			LCAL			LTOE			LMT5			LACR			RACR			CLAV			C7			LPSH			RUA1			RUA2			RUA3			RLEL			RMEL			LUA1			LUA2			LUA3			LLEL			LMEL			RFAsuperior			RFAradius			LFAsuperior			LFAradius			LFAulna			LASI			RFAulna			RPSI		
		X1	Y1	Z1	X2	Y2	Z2	X3	Y3	Z3	X4	Y4	Z4	X5	Y5	Z5	X6	Y6	Z6	X7	Y7	Z7	X8	Y8	Z8	X9	Y9	Z9	X10	Y10	Z10	X11	Y11	Z11	X12	Y12	Z12	X13	Y13	Z13	X14	Y14	Z14	X15	Y15	Z15	X16	Y16	Z16	X17	Y17	Z17	X18	Y18	Z18	X19	Y19	Z19	X20	Y20	Z20	X21	Y21	Z21	X22	Y22	Z22	X23	Y23	Z23	X24	Y24	Z24	X25	Y25	Z25	X26	Y26	Z26	X27	Y27	Z27	X28	Y28	Z28	X29	Y29	Z29	X30	Y30	Z30	X31	Y31	Z31	X32	Y32	Z32	X33	Y33	Z33	X34	Y34	Z34	X35	Y35	Z35	X36	Y36	Z36	X37	Y37	Z37	X38	Y38	Z38	X39	Y39	Z39	X40	Y40	Z40	X41	Y41	Z41	X42	Y42	Z42	X43	Y43	Z43	X44	Y44	Z44	X45	Y45	Z45	

4	  0.040000	990.788726	1053.729208	-385.093675	823.439132	1085.748203	-548.728224	976.698038	797.342620	-343.573765	1073.876412	759.456906	-371.727078	1044.389233	643.255485	-372.431621	883.839884	831.178445	-672.550544	954.886511	720.734439	-663.842344	899.102936	621.968638	-651.849618	1046.042201	421.827755	-397.688605	980.217089	410.418568	-347.533568	916.990714	294.875822	-369.452094	814.519490	237.389467	-339.081181	842.906153	225.123317	-418.306770	899.667300	382.978515	-609.418203	783.101379	319.936027	-635.384317	803.896585	217.334718	-584.264166	753.578710	239.233356	-403.623155	917.916145	 97.033560	-356.513774	853.641124	132.743548	-290.807090	642.022121	102.454229	-536.706101	867.984474	 69.493040	-553.693231	805.695758	 57.221591	-621.430735	978.284869	1549.453642	-669.810264	960.761496	1539.051619	-356.307161	1033.067947	1465.816363	-484.912541	942.408873	1576.909390	-514.739728	897.206782	1510.534795	-685.833624	879.275349	1418.231622	-255.873499	791.602114	1385.480981	-273.581376	782.712921	1340.710890	-217.863024	776.944660	1277.635076	-182.350468	745.851856	1259.710373	-261.582203	907.559176	1413.661113	-741.110992	849.745813	1329.345269	-718.923323	873.898349	1281.360813	-770.910208	884.219862	1205.467515	-788.902344	855.386938	1194.554678	-703.126067	803.257406	1200.102701	-185.259620	974.273795	1119.235656	-256.503998	960.478764	1158.732354	-748.100339	1107.013941	1229.100059	-684.985797	1117.262489	1161.685540	-695.710488	987.485672	1049.780031	-622.386699	939.668256	1075.190262	-219.010593	823.330260	1081.328481	-460.776724	
5	  0.050000	991.318478	1058.164674	-385.042234	823.191981	1089.754662	-547.856727	978.889285	802.925335	-342.522910	1077.379882	765.745100	-371.379516	1047.462414	649.262950	-370.216481	879.330525	835.304988	-672.160443	947.364050	723.019177	-663.278981	888.067766	625.969977	-651.932834	1056.884939	425.017566	-396.584079	992.014913	409.358543	-346.839118	935.989116	290.394064	-370.578331	836.953054	226.000236	-340.110021	866.656664	216.983463	-420.268341	883.664003	386.435542	-610.297962	766.392739	324.582856	-635.024862	787.021552	221.385120	-584.772294	775.172010	224.957396	-404.134704	949.762534	 93.709696	-359.483707	883.234018	123.549821	-293.444858	624.858745	109.684178	-537.078500	848.684248	 70.028827	-553.894070	786.231036	 57.561099	-621.287118	979.135519	1555.301206	-668.576253	958.338434	1544.012829	-356.504071	1032.856593	1470.417781	-483.831589	942.171970	1580.917647	-514.531362	898.732281	1515.364419	-685.784778	874.968072	1425.928247	-255.894803	787.484166	1395.109015	-272.554152	777.631337	1349.876143	-217.523123	769.688263	1287.421831	-182.577091	738.873768	1270.002603	-262.043148	911.458546	1418.066098	-740.791149	854.248805	1332.526750	-720.846871	882.911189	1284.613819	-770.715760	894.682821	1208.904136	-787.406330	862.583345	1198.836136	-702.243130	795.627093	1210.148268	-185.390336	967.240654	1130.101187	-255.842312	971.148109	1167.436968	-742.476597	1110.974339	1247.074712	-675.422959	1124.958658	1180.064611	-683.648778	988.259472	1052.074276	-622.399787	932.594903	1085.625541	-219.156023	824.009370	1085.490373	-460.868915	
6	  0.060000	992.064936	1062.580366	-385.033278	823.802724	1094.162613	-547.462976	980.913094	808.431510	-341.141051	1079.814835	771.904738	-370.458897	1049.965625	655.163813	-367.739662	874.928753	839.807882	-671.831980	939.974564	725.799626	-662.963098	877.508925	630.428560	-652.276082	1067.132052	428.049952	-395.098164	1003.334065	407.989781	-346.025999	955.007881	285.823093	-371.356637	859.998616	214.436995	-341.302878	890.605367	208.730144	-421.907668	868.244391	390.498331	-611.505542	750.277770	329.861430	-634.963232	770.737031	226.080073	-585.599357	797.870568	210.142402	-404.992312	982.089702	 90.943783	-362.366893	913.453493	114.792449	-295.909273	608.363064	117.694632	-537.541369	829.114656	 70.416629	-554.061527	767.136950	 58.019882	-621.298247	979.999162	1561.104182	-667.358673	956.155957	1549.023200	-356.709543	1032.771921	1475.142706	-482.766797	942.026321	1585.063850	-514.290504	900.255868	1520.126908	-685.712070	871.019728	1433.625101	-255.974741	783.744522	1404.540801	-272.113298	772.685762	1359.021377	-217.679921	762.702962	1297.072736	-183.150030	732.422560	1280.067741	-262.928944	915.470987	1422.647893	-740.471664	859.182083	1336.075260	-722.427265	891.194128	1288.254972	-770.559227	904.516549	1212.638143	-785.906579	869.116670	1203.211981	-701.434218	788.366367	1220.041323	-185.875425	960.696312	1140.810775	-255.398056	980.820666	1176.340292	-736.856106	1113.618597	1264.640386	-666.001375	1131.206314	1198.201258	-671.906248	989.185424	1054.724280	-622.399487	925.897777	1095.908032	-219.578686	824.845180	1090.095516	-460.872582	
7	  0.070000	993.150964	1066.936716	-385.108275	825.451360	1098.996785	-547.592502	982.468337	813.813400	-339.495932	1080.885016	777.774436	-368.714808	1051.491224	660.797677	-364.967481	870.799850	844.782725	-671.601129	932.859238	729.260052	-663.020900	867.670841	635.509062	-652.989828	1076.455093	430.781823	-393.100946	1013.984506	406.105635	-344.966829	974.030561	281.164292	-371.721681	883.928673	202.750225	-342.682270	914.920384	200.457702	-423.211105	853.703392	395.385376	-613.172795	735.055729	336.000141	-635.324270	755.336514	231.609963	-586.873755	822.090238	194.781532	-406.276155	1014.981354	 89.191451	-365.121712	944.504558	106.875497	-298.027925	592.909762	126.755007	-538.170048	809.156329	 70.454907	-554.277032	748.599494	 58.674399	-621.621683	980.958403	1566.829732	-666.236039	954.389602	1554.032261	-356.875388	1032.886570	1480.014844	-481.738820	942.027405	1589.370660	-513.968197	901.821616	1524.826737	-685.592068	867.617217	1441.176487	-256.162875	780.538977	1413.520152	-272.685958	767.953567	1368.036095	-218.649292	756.168968	1306.428634	-184.258126	726.832290	1289.681125	-264.489859	919.651311	1427.445408	-740.117220	864.495182	1340.108496	-723.481834	898.367993	1292.446396	-770.430764	913.349617	1216.791737	-784.415904	874.695160	1207.721314	-700.756482	781.681857	1229.622202	-186.875580	954.873904	1151.197841	-255.270853	988.961096	1185.436378	-731.302536	1114.364504	1281.433288	-656.908811	1135.307300	1215.793162	-660.727704	990.351780	1057.888014	-622.324032	919.860439	1105.877517	-220.255938	826.078711	1095.127905	-460.807122	
8	  0.080000	994.584775	1071.212551	-385.262019	827.676740	1103.938161	-547.898219	983.159177	819.033013	-337.883551	1080.967700	783.131018	-366.293420	1051.806381	665.930959	-362.150609	867.147872	850.045967	-671.473321	926.156691	733.251365	-663.406820	858.550734	641.066115	-653.992448	1084.823938	433.117088	-390.761042	1024.115533	403.656370	-343.561557	993.009853	276.529672	-371.883012	908.653540	191.229589	-344.138386	939.629506	192.481018	-424.402134	840.025073	400.903614	-615.210726	720.711433	342.811646	-636.028552	740.790022	237.719811	-588.529788	847.542987	179.399509	-407.798119	1048.089383	 88.754224	-367.828295	976.198642	100.072450	-299.851996	578.529186	136.607265	-539.017160	788.888018	 70.015444	-554.655274	730.518616	 59.512277	-622.338574	982.128758	1572.439861	-665.268475	953.133765	1558.896998	-356.900765	1033.202241	1484.939958	-480.758383	942.187472	1593.745111	-513.505531	903.503636	1529.530308	-685.409748	864.728000	1448.324772	-256.485973	777.792234	1421.773067	-274.432758	763.449402	1376.734330	-220.488142	750.153747	1315.327011	-185.909958	722.126746	1298.655135	-266.729343	923.925775	1432.347820	-739.673212	869.670804	1344.501258	-724.036496	904.455238	1297.087863	-770.235214	921.108145	1221.297398	-782.961989	879.404074	1212.337041	-700.238885	775.605369	1238.722278	-188.356325	949.747628	1161.090340	-255.405622	995.562920	1194.503633	-725.959833	1113.427626	1297.167057	-648.349103	1137.403111	1232.501873	-650.276861	991.771690	1061.494066	-622.081397	914.577969	1115.353461	-221.012071	827.882160	1100.187824	-460.696110	
9	  0.090000	996.293503	1075.436518	-385.404177	829.956377	1108.627698	-548.033180	982.786048	823.951463	-336.451331	1080.443819	787.689483	-363.598261	1050.809368	670.301053	-359.673770	864.132710	855.350583	-671.452246	919.987101	737.503170	-663.957374	850.077745	646.847381	-655.081491	1092.319463	435.029762	-388.400723	1033.984018	400.742452	-341.821489	1011.848600	272.099676	-372.074366	933.909828	180.250259	-345.523436	964.514620	185.182891	-425.655090	827.113951	406.724964	-617.413002	707.145285	349.972868	-636.851101	726.992963	244.060381	-590.441679	873.682547	164.651569	-409.258280	1080.877156	 89.762569	-370.693756	1008.240882	 94.462177	-301.769950	565.115016	146.831875	-540.094344	768.550735	 69.216966	-555.174301	712.622613	 60.419779	-623.335304	983.555815	1577.855950	-664.381147	952.417391	1563.464683	-356.690755	1033.675006	1489.756462	-479.812205	942.489134	1598.050531	-512.862322	905.348673	1534.274763	-685.160248	862.202554	1454.851764	-256.951983	775.370530	1429.099228	-277.227841	759.174368	1384.932101	-223.041812	744.659994	1323.629541	-188.020383	718.094336	1306.863367	-269.483724	928.077016	1437.195611	-739.104172	874.154366	1349.064798	-724.250614	909.663446	1301.949988	-769.848110	927.862682	1225.999588	-781.573748	883.423550	1216.991020	-699.884570	770.102764	1247.170167	-190.220488	945.231673	1170.311319	-255.655588	1000.868272	1203.248903	-721.009874	1111.342078	1311.626620	-640.470951	1138.006237	1248.020571	-640.685603	993.418018	1065.356801	-621.618583	909.968353	1124.140215	-221.817938	830.141913	1104.916053	-460.470842	
